<svg xmlns="http://www.w3.org/2000/svg" viewBox="0 0 407.74 130.83"><defs><style>.cls-1{fill:#fff;}</style></defs><g id="Layer_2" data-name="Layer 2"><g id="Layer_1-2" data-name="Layer 1"><path class="cls-1" d="M372.91,100.8c-18.52,0-32.55-12.15-34.52-14.59l12.11-13a45.4,45.4,0,0,0,20.64,9c7.33,1.21,12.7-.57,14.14-2.7a4.07,4.07,0,0,0-.9-5.83c-2.14-1.71-5.91-3.07-12.1-4.52l-.71-.16c-11.9-2.8-29.49-8.18-29.49-25.06,0-10.5,7.3-18.75,20-22.63,11.58-3.54,31.18-.25,41.95,7L393.39,44.06c-7.81-5.77-21.59-7.32-25.83-4.79a3.77,3.77,0,0,0-.29,6.45c5.07,3.47,29.65,8.63,36.32,17.57,5.64,7.57,5.52,16.64-.31,24.51s-17.49,13-30.37,13"/><path class="cls-1" d="M29.13,22H0V98.72H29.13c23,0,39.06-15.65,39.06-38.06v-.29C68.19,37.8,52.13,22,29.13,22M49.66,60.66c0,12-7.87,19.52-20.53,19.52H18.54V40.57H29.13c12.66,0,20.53,7.59,20.53,19.8Z"/><path class="cls-1" d="M380.79,116a7.73,7.73,0,1,0-7.72,7.72,7.72,7.72,0,0,0,7.72-7.72"/><path class="cls-1" d="M214.09,53.65V68.4h13.17a20.81,20.81,0,1,1-3.77-22l14.57-13.2a40.49,40.49,0,1,0,10.46,27.17V53.65Z"/><rect class="cls-1" x="196.46" width="23.37" height="12.48"/><path class="cls-1" d="M331.91,22.07H312.28V61.58l0,.47c0,10.24-7.5,19.18-17.74,19.18s-17.24-8.94-17.24-19.18v-40H257.69v40c0,21.07,15.6,38.81,36.67,38.81s37.57-17.74,37.57-38.81c0-.25,0-.5,0-.68Z"/><path class="cls-1" d="M129.87,97.72a18.05,18.05,0,0,0-2.43-7.42c-.8-1.34-3-4.53-6-5.35a10.24,10.24,0,0,0-3.54-.26c-.52,0-1.08.12-1.7.23-2.14.37-4.58.92-6.35,2.7S106,93.86,106,100.35a39.32,39.32,0,0,0,3.86.91c-.18-6.91,1.88-10,2.72-10.88s2.64-1.33,4.26-1.61c.51-.09,1-.15,1.36-.19a6.7,6.7,0,0,1,2.19.13c1.09.3,2.57,1.74,3.67,3.59A14.12,14.12,0,0,1,126,98a9.52,9.52,0,0,1-.23,2.22c-.06.3-.11.61-.16.93,1.39-.28,2.77-.63,4.14-1a10.13,10.13,0,0,0,.14-2.43"/><path class="cls-1" d="M138.32,89.71a21.35,21.35,0,0,0-6.79-10.47,20.75,20.75,0,0,0-3.36-2.17c-.6-.33-1.18-.65-1.73-1a10,10,0,0,0-5.69-1.44c-.54,0-1.1,0-1.66,0a28.32,28.32,0,0,0-6.84.83A30.79,30.79,0,0,0,107,77.74l-.7.35a14.57,14.57,0,0,0-3.4,2.11,12.7,12.7,0,0,0-1.6,1.78c-2.65,3.46-4.24,9-4.52,14.46a39.06,39.06,0,0,0,3.82,1.93A38.73,38.73,0,0,1,101,92c.76-3.56,1.14-4.72,3.36-7.62a9,9,0,0,1,1.09-1.24A11.71,11.71,0,0,1,108,81.59l.72-.36a27.9,27.9,0,0,1,4.59-2,25.15,25.15,0,0,1,5.91-.68l1.52,0a6.29,6.29,0,0,1,3.58.81c.66.43,1.32.79,2,1.14a15.81,15.81,0,0,1,8.27,10.28,17.11,17.11,0,0,1,.64,4.68v2.61A42,42,0,0,0,139.11,96v-.53a21.32,21.32,0,0,0-.79-5.74"/><path class="cls-1" d="M137.24,74.67a27.18,27.18,0,0,0-9.56-6.53,26.21,26.21,0,0,0-9.56-1.7h-.88a23.77,23.77,0,0,0-6.6,1A36.17,36.17,0,0,0,103,71.32a22.47,22.47,0,0,0-4.6,3.39,19.23,19.23,0,0,0-2.85,4.05A40.75,40.75,0,0,0,93,84.1a41.44,41.44,0,0,0-2.21,8.16c1,.84,2,1.62,3.07,2.35a49.49,49.49,0,0,1,2.6-9.54,36.44,36.44,0,0,1,2.25-4.75A14.91,14.91,0,0,1,101,77.26a20,20,0,0,1,4-2.6,33.25,33.25,0,0,1,6.77-3.45,19.85,19.85,0,0,1,5.52-.86h.77a22.37,22.37,0,0,1,8.14,1.43,23.37,23.37,0,0,1,8.19,5.62,24,24,0,0,1,6.85,13.34c.16,1.2.29,1.69.44,3.53a42.89,42.89,0,0,0,3.55-2.81c0-.41-.06-.82-.12-1.23a27.91,27.91,0,0,0-7.93-15.55"/><path class="cls-1" d="M144.83,66.16c-2.7-2.54-6.47-4.06-9.8-5.39-.75-.3-1.48-.59-2.18-.89l-3.73-1.59a36.84,36.84,0,0,0-6.91-2.4,32.91,32.91,0,0,0-4.1-.59c-6-.49-10.71.25-14.58,2.27A39.55,39.55,0,0,0,88.05,71.29,51.67,51.67,0,0,0,82.65,83s1.75,2.57,2.75,3.79a61.73,61.73,0,0,1,6-13.53c2.78-4.75,7.46-8.87,13.92-12.23,3.19-1.66,7.18-2.26,12.45-1.84a28.53,28.53,0,0,1,3.61.52,33.28,33.28,0,0,1,6.2,2.18l3.72,1.58c.72.31,1.48.61,2.26.92C136.73,65.66,140,67,142.15,69a25.44,25.44,0,0,1,6.29,9.4,41,41,0,0,1,2,7.65,42.93,42.93,0,0,0,3.07-4.4A40.75,40.75,0,0,0,152.1,77a29.43,29.43,0,0,0-7.27-10.88"/><path class="cls-1" d="M145.89,52.65a60.35,60.35,0,0,0-6.14-3.12A59.49,59.49,0,0,0,127.11,45a45.5,45.5,0,0,0-9.12-.85H116.8A47.32,47.32,0,0,0,93.66,50.5a18,18,0,0,0-2.75,2,19.85,19.85,0,0,1-1.56,1.25,49,49,0,0,0-4.92,3.76,34.68,34.68,0,0,0-7.7,9.54l-.12.24a41.7,41.7,0,0,0,1.48,6.1,2.88,2.88,0,0,0,.13-.31c.64-1.46,1.24-2.85,2-4.18A30.67,30.67,0,0,1,87,60.45,48.31,48.31,0,0,1,91.57,57c.7-.49,1.29-1,1.87-1.48a15,15,0,0,1,2.16-1.62,43.43,43.43,0,0,1,21.23-5.81H118a42.47,42.47,0,0,1,8.37.76,56.37,56.37,0,0,1,11.8,4.25A59.85,59.85,0,0,1,143.89,56,32.26,32.26,0,0,1,157,71.16c.13.31.25.63.38,1s.15.38.23.57a42,42,0,0,0,1.47-6.2,36,36,0,0,0-13.17-13.83"/><path class="cls-1" d="M153,47.77a47.12,47.12,0,0,0-13.12-7.21,95.54,95.54,0,0,0-9.57-2.67,49.77,49.77,0,0,0-12.3-2h-.59a55.09,55.09,0,0,0-10.9,1.56,52.44,52.44,0,0,0-22,10.24,67.92,67.92,0,0,0-8.16,8.12,42.14,42.14,0,0,0-.26,5.83,53,53,0,0,1,10.54-11.1,50.4,50.4,0,0,1,20.76-9.73,49.72,49.72,0,0,1,10-1H118a49.42,49.42,0,0,1,11.83,1.57,82,82,0,0,1,8.69,2.9c4.25,1.62,8.69,3.44,12.27,6.34a31.62,31.62,0,0,1,8.81,10.59,43.07,43.07,0,0,0-.3-6.42A44.29,44.29,0,0,0,153,47.77"/><path class="cls-1" d="M137.93,32.41A55.23,55.23,0,0,0,131.65,31a101.56,101.56,0,0,0-13.6-1.81,45.28,45.28,0,0,0-6.54.13c-7.36.7-14.2,3.4-20.81,6a36,36,0,0,0-10.35,6.73,41.67,41.67,0,0,0-3,8.07C80.09,46.5,87.54,40.78,92,38.75a63,63,0,0,1,19.93-5.55,43.52,43.52,0,0,1,6-.11A98,98,0,0,1,131,34.84a49.4,49.4,0,0,1,5.84,1.31,99.46,99.46,0,0,1,9.53,4,42.65,42.65,0,0,1,11.74,8.54,41.17,41.17,0,0,0-2.38-6.4,67.6,67.6,0,0,0-11.31-7.23,40.68,40.68,0,0,0-6.44-2.67"/><path class="cls-1" d="M123.18,18.81A41.9,41.9,0,0,0,89.9,29.39a44.32,44.32,0,0,0-3.27,3.31s0,.09,0,.06c.87-.49,1.75-1,2.65-1.6A68.71,68.71,0,0,1,105,24.45a43.88,43.88,0,0,1,13-1.88c.74,0,1.47,0,2.21,0a44.38,44.38,0,0,1,8.35,1,62.63,62.63,0,0,1,19.22,7.59c.12.07.16,0,0-.11a41.17,41.17,0,0,0-24.7-12.24"/><path class="cls-1" d="M53,125.42l-5.24-9.61h3.38l3.5,6.92,3.55-6.92h3.13l-5.24,9.61v5.14H53Z"/><path class="cls-1" d="M66.06,115.81h2.55l6.33,14.75H71.51l-1.24-3.09H64.2L63,130.56H59.75Zm-1,9.36h4.26l-2.13-5.32Z"/><path class="cls-1" d="M78.62,125.42l-5.24-9.61h3.38l3.5,6.92,3.55-6.92h3.13l-5.24,9.61v5.14H78.62Z"/><path class="cls-1" d="M89.11,115.81h3.06v14.75H89.11Z"/><path class="cls-1" d="M95.4,115.81h2l8.28,9.53v-9.53h2.89v14.75h-2l-8.3-9.5v9.5H95.4Z"/><path class="cls-1" d="M123.92,122.08h6.68a4.17,4.17,0,0,1,.12.76c0,.27,0,.52,0,.76a8,8,0,0,1-.52,2.93,6.59,6.59,0,0,1-1.43,2.28,6.33,6.33,0,0,1-2.2,1.48,7.57,7.57,0,0,1-2.82.52,8.23,8.23,0,0,1-3-.54,7.18,7.18,0,0,1-2.39-1.54,7,7,0,0,1-1.57-2.41,8.5,8.5,0,0,1-.56-3.13,8.4,8.4,0,0,1,.56-3.11,7.41,7.41,0,0,1,1.58-2.42,7.1,7.1,0,0,1,2.42-1.56,8.31,8.31,0,0,1,3.08-.56,7.15,7.15,0,0,1,5.31,2l-1.76,2.19a5.5,5.5,0,0,0-1.57-1.06,4.7,4.7,0,0,0-1.94-.39,4.79,4.79,0,0,0-1.84.35,4,4,0,0,0-1.44,1,4.59,4.59,0,0,0-1,1.55,5.8,5.8,0,0,0-.33,2,5.9,5.9,0,0,0,.33,2,4.49,4.49,0,0,0,1,1.55,3.89,3.89,0,0,0,1.44,1,4.75,4.75,0,0,0,1.82.34,4.33,4.33,0,0,0,1.5-.25,3.69,3.69,0,0,0,1.21-.73,3.42,3.42,0,0,0,.81-1.15,4.29,4.29,0,0,0,.34-1.53h-3.84Z"/><path class="cls-1" d="M133.25,115.81h4.67a9.37,9.37,0,0,1,2.39.29,5.46,5.46,0,0,1,1.87.86,3.93,3.93,0,0,1,1.21,1.44,4.51,4.51,0,0,1,.43,2,4.65,4.65,0,0,1-.8,2.81,4.79,4.79,0,0,1-2.19,1.62l4,5.69h-3.54l-3.44-5.2H136.3v5.2h-3.05Zm3.05,2.48V123h1.31a3.76,3.76,0,0,0,2.27-.6,2.15,2.15,0,0,0,.82-1.86,1.9,1.9,0,0,0-.81-1.68,3.86,3.86,0,0,0-2.22-.55Z"/><path class="cls-1" d="M146.36,115.81h3v8.34a5.17,5.17,0,0,0,.75,3,2.62,2.62,0,0,0,2.28,1,2.65,2.65,0,0,0,2.3-1,5.2,5.2,0,0,0,.76-3.05v-8.32h3.07v8.32a7.14,7.14,0,0,1-1.57,5,7,7,0,0,1-9.16,0,7.41,7.41,0,0,1-1.48-5Z"/><path class="cls-1" d="M161.68,115.81H166a6.7,6.7,0,0,1,4.1,1,3.28,3.28,0,0,1,1.3,2.75,4,4,0,0,1-.48,2,3.29,3.29,0,0,1-1.65,1.34,4,4,0,0,1,2.1,1.34,3.47,3.47,0,0,1,.67,2.16,4.41,4.41,0,0,1-.3,1.63,3.11,3.11,0,0,1-1,1.33,5,5,0,0,1-1.84.89,10.42,10.42,0,0,1-2.83.33h-4.37Zm3.06,2.42v3.56h1a3,3,0,0,0,2-.49,1.73,1.73,0,0,0,.55-1.37c0-1.14-.83-1.7-2.48-1.7Zm0,5.88v4H166a3.64,3.64,0,0,0,2.25-.54,1.82,1.82,0,0,0,.68-1.5,1.66,1.66,0,0,0-.78-1.5,4.21,4.21,0,0,0-2.24-.49Z"/><path class="cls-1" d="M174.51,115.81h3.05v8.34a5.17,5.17,0,0,0,.75,3,3,3,0,0,0,4.58,0,5.12,5.12,0,0,0,.76-3.05v-8.32h3.07v8.32a7.14,7.14,0,0,1-1.57,5,7,7,0,0,1-9.15,0,7.41,7.41,0,0,1-1.49-5Z"/></g></g></svg>